<?xml version="1.0" standalone="no"?>
<!DOCTYPE svg PUBLIC "-//W3C//DTD SVG 1.1//EN" "http://www.w3.org/Graphics/SVG/1.1/DTD/svg11.dtd" >
<svg xmlns="http://www.w3.org/2000/svg" xmlns:xlink="http://www.w3.org/1999/xlink" version="1.1">
<metadata>
Created by FontForge 20201107 at Fri May 16 09:53:30 2025
 By 
Copyright Anna2_egea 2024
</metadata>
<defs>
<font id="ocean" horiz-adv-x="2105" >
  <font-face 
    font-family="ocean"
    font-weight="400"
    font-stretch="normal"
    units-per-em="2048"
    panose-1="0 0 4 0 0 0 0 0 0 0"
    ascent="1638"
    descent="-410"
    x-height="1755"
    cap-height="2341"
    bbox="0 -1169 2927 3510"
    underline-thickness="204"
    underline-position="307"
    unicode-range="U+0020-201D"
  />
<missing-glyph horiz-adv-x="2834" 
d="M2109 102h-1968l983 1321zM102 141v2642l983 -1321zM2148 141l-983 1321l983 1321v-2642zM1124 1503l-983 1321h1968zM0 0h2251v2927h-2251v-2927z" />
    <glyph glyph-name=".notdef" horiz-adv-x="2834" 
d="M2109 102h-1968l983 1321zM102 141v2642l983 -1321zM2148 141l-983 1321l983 1321v-2642zM1124 1503l-983 1321h1968zM0 0h2251v2927h-2251v-2927z" />
    <glyph glyph-name=".null" horiz-adv-x="0" 
 />
    <glyph glyph-name="nonmarkingreturn" horiz-adv-x="682" 
 />
    <glyph glyph-name="space" unicode=" " horiz-adv-x="876" 
 />
    <glyph glyph-name="exclam" unicode="!" horiz-adv-x="350" 
 />
    <glyph glyph-name="quotedbl" unicode="&#x22;" horiz-adv-x="350" 
 />
    <glyph glyph-name="quotesingle" unicode="'" horiz-adv-x="935" 
d="M0 1755q0 159 78.5 294t213.5 213.5t294 78.5v586q-159 0 -294 -78.5t-213.5 -213.5t-78.5 -294v-586z" />
    <glyph glyph-name="comma" unicode="," horiz-adv-x="935" 
d="M0 0h586q-159 0 -294 78.5t-213.5 213.5t-78.5 294v-586z" />
    <glyph glyph-name="period" unicode="." horiz-adv-x="935" 
d="M0 0h586v586h-586v-586z" />
    <glyph glyph-name="zero" unicode="0" 
d="M1169 586h-583v1169h583v-1169zM586 0h583q0 159 78.5 294t213.5 213.5t294 78.5v1169q0 159 -78.5 294t-213.5 213.5t-294 78.5h-583q0 -159 -78.5 -294t-213.5 -213.5t-294 -78.5v-1169q0 -159 78.5 -294t213.5 -213.5t294 -78.5z" />
    <glyph glyph-name="one" unicode="1" horiz-adv-x="1519" 
d="M586 0q158 0 292.5 78.5t212.5 213.5t78 294v1755h-583q0 -159 -78.5 -294t-213.5 -213.5t-294 -78.5h586v-1755z" />
    <glyph glyph-name="two" unicode="2" 
d="M586 0h1169q0 159 -78.5 294t-213.5 213.5t-294 78.5h-583q0 158 78 292.5t212.5 212.5t292.5 78q159 0 294 78.5t213.5 213.5t78.5 294t-78.5 294t-213.5 213.5t-294 78.5h-583q-159 0 -294 -78.5t-213.5 -213.5t-78.5 -294h1169q0 -159 -78 -294t-212.5 -213.5
t-292.5 -78.5q-160 0 -294.5 -77.5t-213 -212t-78.5 -293.5t78.5 -294t213.5 -213.5t294 -78.5z" />
    <glyph glyph-name="three" unicode="3" 
d="M586 0h583q159 0 294 78.5t213.5 213.5t78.5 294v1169q0 159 -78.5 294t-213.5 213.5t-294 78.5h-583q-159 0 -294 -78.5t-213.5 -213.5t-78.5 -294h1169q0 -159 -78 -294t-212.5 -213.5t-292.5 -78.5q158 0 292.5 -78t212.5 -212.5t78 -292.5h-1169q0 -159 78.5 -294
t213.5 -213.5t294 -78.5z" />
    <glyph glyph-name="four" unicode="4" 
d="M586 1169h583q-158 0 -292.5 78.5t-212.5 213.5t-78 294t-78.5 294t-213.5 213.5t-294 78.5v-586q0 -159 78.5 -294t213.5 -213.5t294 -78.5zM1169 0h586v2341q-159 0 -294 -78.5t-213.5 -213.5t-78.5 -294v-1755z" />
    <glyph glyph-name="five" unicode="5" 
d="M0 0h1169q159 0 294 78.5t213.5 213.5t78.5 294t-78.5 293.5t-213 212t-294.5 77.5h-583q158 0 292.5 -78t212.5 -212.5t78 -292.5h-583q-159 0 -294 -78.5t-213.5 -213.5t-78.5 -294zM586 1169v586h1169v586h-1169q-159 0 -294 -78.5t-213.5 -213.5t-78.5 -294
t78.5 -294t213.5 -213.5t294 -78.5z" />
    <glyph glyph-name="six" unicode="6" 
d="M586 0h583q159 0 294 78.5t213.5 213.5t78.5 294q0 158 -78.5 292.5t-213.5 212.5t-294 78h-583q158 0 292.5 -78t212.5 -212.5t78 -292.5h-583v1169h1169q0 159 -78.5 294t-213.5 213.5t-294 78.5h-583q-159 0 -294 -78.5t-213.5 -213.5t-78.5 -294v-1169
q0 -159 78.5 -294t213.5 -213.5t294 -78.5z" />
    <glyph glyph-name="seven" unicode="7" 
d="M586 0h583v1169q-119 0 -226.5 -46t-186 -123.5t-124.5 -186t-46 -227.5v-586zM1169 1169q159 0 294 78.5t213.5 213.5t78.5 294v586h-1169q0 -159 -78.5 -294t-213.5 -213.5t-294 -78.5h1169v-586z" />
    <glyph glyph-name="eight" unicode="8" 
d="M586 0h583q159 0 294 78.5t213.5 213.5t78.5 294q0 158 -78.5 292.5t-213.5 212.5t-294 78h-583q158 0 292.5 -78t212.5 -212.5t78 -292.5h-583v583q-160 0 -294.5 -77.5t-213 -212t-78.5 -293.5t78.5 -294t213.5 -213.5t294 -78.5zM586 1169v586h583v-586
q159 0 294 78.5t213.5 213.5t78.5 294t-78.5 294t-213.5 213.5t-294 78.5h-583q-159 0 -294 -78.5t-213.5 -213.5t-78.5 -294t78.5 -294t213.5 -213.5t294 -78.5z" />
    <glyph glyph-name="nine" unicode="9" 
d="M1169 0q159 0 294 78.5t213.5 213.5t78.5 294v1169q0 159 -78.5 294t-213.5 213.5t-294 78.5h-583q-159 0 -294 -78.5t-213.5 -213.5t-78.5 -294t78.5 -294t213.5 -213.5t294 -78.5h583q-158 0 -292.5 78.5t-212.5 213.5t-78 294h583v-1755z" />
    <glyph glyph-name="question" unicode="?" horiz-adv-x="350" 
 />
    <glyph glyph-name="A" unicode="A" 
d="M0 0h586v586q0 158 78 292.5t212.5 212.5t292.5 78h-583v586h583v-1755h586v1755q0 159 -78.5 294t-213.5 213.5t-294 78.5h-583q-159 0 -294 -78.5t-213.5 -213.5t-78.5 -294v-1755z" />
    <glyph glyph-name="B" unicode="B" 
d="M586 0h583q159 0 294 78.5t213.5 213.5t78.5 294q0 158 -78.5 292.5t-213.5 212.5t-294 78v-583h-583v583h583q-158 0 -292.5 78.5t-212.5 213.5t-78 294h583v-586q159 0 294 78.5t213.5 213.5t78.5 294t-78.5 294t-213.5 213.5t-294 78.5h-583q-159 0 -294 -78.5
t-213.5 -213.5t-78.5 -294v-1169q0 -159 78.5 -294t213.5 -213.5t294 -78.5z" />
    <glyph glyph-name="C" unicode="C" 
d="M586 0h583q159 0 294 78.5t213.5 213.5t78.5 294h-1169v1169h1169q0 159 -78.5 294t-213.5 213.5t-294 78.5h-583q0 -159 -78.5 -294t-213.5 -213.5t-294 -78.5v-1169q0 -159 78.5 -294t213.5 -213.5t294 -78.5z" />
    <glyph glyph-name="D" unicode="D" 
d="M1169 586h-583v1169h583v-1169zM0 0h1169q159 0 294 78.5t213.5 213.5t78.5 294v1169q0 159 -78.5 294t-213.5 213.5t-294 78.5h-583q0 -159 -78.5 -294t-213.5 -213.5t-294 -78.5v-1755z" />
    <glyph glyph-name="E" unicode="E" 
d="M586 0h583q159 0 294 78.5t213.5 213.5t78.5 294h-1169q0 158 78 292.5t212.5 212.5t292.5 78h-583v586h1169q0 159 -78.5 294t-213.5 213.5t-294 78.5h-583q-159 0 -294 -78.5t-213.5 -213.5t-78.5 -294v-1169q0 -159 78.5 -294t213.5 -213.5t294 -78.5z" />
    <glyph glyph-name="F" unicode="F" horiz-adv-x="1519" 
d="M0 0q159 0 294 78.5t213.5 213.5t78.5 294q0 158 78 292.5t212.5 212.5t292.5 78h-583v586h583v586h-583q-159 0 -294 -78.5t-213.5 -213.5t-78.5 -294v-1755z" />
    <glyph glyph-name="G" unicode="G" 
d="M1755 586v583h-586q159 0 294 -78t213.5 -212.5t78.5 -292.5zM586 0h583q159 0 294 78.5t213.5 213.5t78.5 294h-1169v1169h1169q0 159 -78.5 294t-213.5 213.5t-294 78.5h-583q-159 0 -294 -78.5t-213.5 -213.5t-78.5 -294v-1169q0 -159 78.5 -294t213.5 -213.5
t294 -78.5z" />
    <glyph glyph-name="H" unicode="H" 
d="M0 0q159 0 294 78.5t213.5 213.5t78.5 294h583q0 -159 78.5 -294t213.5 -213.5t294 -78.5v2341q0 -159 -78.5 -294t-213.5 -213.5t-294 -78.5v-586h-583v586q-159 0 -294 78.5t-213.5 213.5t-78.5 294v-2341z" />
    <glyph glyph-name="I" unicode="I" horiz-adv-x="935" 
d="M0 0q159 0 294 78.5t213.5 213.5t78.5 294v1169q0 -159 -78.5 -294t-213.5 -213.5t-294 -78.5v-1169zM0 1755h586v586q-159 0 -294 -78.5t-213.5 -213.5t-78.5 -294z" />
    <glyph glyph-name="J" unicode="J" horiz-adv-x="1519" 
d="M586 0q158 0 292.5 78.5t212.5 213.5t78 294v1169q0 -159 -78 -294t-212.5 -213.5t-292.5 -78.5v-583q-159 0 -294 78t-213.5 212.5t-78.5 292.5v-583q0 -159 78.5 -294t213.5 -213.5t294 -78.5zM586 1755h583v586q-158 0 -292.5 -78.5t-212.5 -213.5t-78 -294z" />
    <glyph glyph-name="K" unicode="K" 
d="M0 -586q0 159 78.5 294t213.5 213.5t294 78.5v586h583v-586q0 -159 78.5 -294t213.5 -213.5t294 -78.5v1172q0 159 -78.5 293.5t-213 212t-294.5 77.5h-583v586q0 159 -78.5 294t-213.5 213.5t-294 78.5v-2927zM1169 1169q159 0 294 78.5t213.5 213.5t78.5 294v586
q-159 0 -294 -78.5t-213.5 -213.5t-78.5 -294v-586z" />
    <glyph glyph-name="L" unicode="L" 
d="M586 0h1169q0 159 -78.5 294t-213.5 213.5t-294 78.5h-583v-586zM0 0q159 0 294 78.5t213.5 213.5t78.5 294v1169q-159 0 -294 78.5t-213.5 213.5t-78.5 294v-2341z" />
    <glyph glyph-name="M" unicode="M" horiz-adv-x="2691" 
d="M0 0h586v1169h583q-158 0 -292.5 78.5t-212.5 213.5t-78 294t-78.5 294t-213.5 213.5t-294 78.5v-2341zM1755 0h586v2341q-159 0 -294 -78.5t-213.5 -213.5t-78.5 -294t-78.5 -294t-213.5 -213.5t-294 -78.5h586v-1169z" />
    <glyph glyph-name="N" unicode="N" horiz-adv-x="2691" 
d="M0 0h586v1169q158 0 292.5 -78t212.5 -212.5t78 -292.5q0 -159 78.5 -294t213.5 -213.5t294 -78.5h586v1755q0 159 -78.5 294t-213.5 213.5t-294 78.5v-1755q-159 0 -294 78t-213.5 212.5t-78.5 292.5q-158 0 -292.5 78.5t-212.5 213.5t-78 294t-78.5 294t-213.5 213.5
t-294 78.5v-2341z" />
    <glyph glyph-name="O" unicode="O" 
d="M1169 0h586v586q0 -159 -78.5 -294t-213.5 -213.5t-294 -78.5zM586 0h583v586h-583v1169h-586v-1169q0 -159 78.5 -294t213.5 -213.5t294 -78.5zM0 1755q0 159 78.5 294t213.5 213.5t294 78.5h-586v-586zM1169 586h586v1169q0 159 -78.5 294t-213.5 213.5t-294 78.5h-583
v-586h583v-1169z" />
    <glyph glyph-name="P" unicode="P" 
d="M0 0h586v1755h583q0 -159 -78 -294t-212.5 -213.5t-292.5 -78.5h583q159 0 294 78.5t213.5 213.5t78.5 294t-78.5 294t-213.5 213.5t-294 78.5h-583q-159 0 -294 -78.5t-213.5 -213.5t-78.5 -294v-1755z" />
    <glyph glyph-name="Q" unicode="Q" 
d="M1169 0h586q-159 0 -294 78.5t-213.5 213.5t-78.5 294v-586zM586 0h583q0 160 -77.5 294.5t-212 213t-293.5 78.5v1169h583v-1169h586v1169q0 159 -78.5 294t-213.5 213.5t-294 78.5h-583q-159 0 -294 -78.5t-213.5 -213.5t-78.5 -294v-1169q0 -159 78.5 -294
t213.5 -213.5t294 -78.5z" />
    <glyph glyph-name="R" unicode="R" 
d="M1169 0h586v586q0 158 -78.5 292.5t-213.5 212.5t-294 78v-1169zM0 0h586v586q0 158 78 292.5t212.5 212.5t292.5 78h-583v586h583v-586q159 0 294 78.5t213.5 213.5t78.5 294t-78.5 294t-213.5 213.5t-294 78.5h-583q-159 0 -294 -78.5t-213.5 -213.5t-78.5 -294v-1755z
" />
    <glyph glyph-name="S" unicode="S" 
d="M586 0h583q159 0 294 78.5t213.5 213.5t78.5 294q0 158 -78.5 292.5t-213.5 212.5t-294 78q-158 0 -292.5 78.5t-212.5 213.5t-78 294h1169q0 159 -78.5 294t-213.5 213.5t-294 78.5h-583q-159 0 -294 -78.5t-213.5 -213.5t-78.5 -294t78.5 -294t213.5 -213.5t294 -78.5
q0 -119 46 -226.5t123.5 -186t186 -124.5t227.5 -46h-1169q0 -159 78.5 -294t213.5 -213.5t294 -78.5z" />
    <glyph glyph-name="T" unicode="T" 
d="M586 0h583v1169q0 -158 -78 -292.5t-212.5 -212.5t-292.5 -78v-586zM586 1169h583v586h586q0 159 -78.5 294t-213.5 213.5t-294 78.5h-583q-159 0 -294 -78.5t-213.5 -213.5t-78.5 -294h586v-586z" />
    <glyph glyph-name="U" unicode="U" 
d="M586 0h583q159 0 294 78.5t213.5 213.5t78.5 294v1755q-159 0 -294 -78.5t-213.5 -213.5t-78.5 -294v-1169h-583v1169q-159 0 -294 78.5t-213.5 213.5t-78.5 294v-1755q0 -159 78.5 -294t213.5 -213.5t294 -78.5z" />
    <glyph glyph-name="V" unicode="V" 
d="M586 0q158 0 292.5 78.5t212.5 213.5t78 294h-583v1169q0 159 -78.5 294t-213.5 213.5t-294 78.5v-1755q159 0 294 -78.5t213.5 -213.5t78.5 -294zM1169 586h586v1755q-159 0 -294 -78.5t-213.5 -213.5t-78.5 -294v-1169z" />
    <glyph glyph-name="W" unicode="W" horiz-adv-x="3274" 
d="M1169 0v586h-583q158 0 292.5 -78.5t212.5 -213.5t78 -294zM1169 0h586q0 159 78.5 294t213.5 213.5t294 78.5h-586q-159 0 -294 -78.5t-213.5 -213.5t-78.5 -294zM1169 586h586v1169h-586v-1169zM586 0v2341h-586v-1755q0 -159 78.5 -294t213.5 -213.5t294 -78.5z
M2341 0q159 0 294 78.5t213.5 213.5t78.5 294v1755h-586v-2341z" />
    <glyph glyph-name="X" unicode="X" 
d="M0 0q159 0 294 78.5t213.5 213.5t78.5 294h583q0 -159 78.5 -294t213.5 -213.5t294 -78.5v586q0 158 -78.5 292.5t-213.5 212.5t-294 78h-583q0 -158 -78.5 -292.5t-213.5 -212.5t-294 -78v-586zM586 1169v586q0 159 -78.5 294t-213.5 213.5t-294 78.5v-586
q0 -159 78.5 -294t213.5 -213.5t294 -78.5zM1169 1169q0 159 78.5 294t213.5 213.5t294 78.5v586q-159 0 -294 -78.5t-213.5 -213.5t-78.5 -294v-586z" />
    <glyph glyph-name="Y" unicode="Y" 
d="M586 1169v586q0 159 -78.5 294t-213.5 213.5t-294 78.5v-586q0 -159 78.5 -294t213.5 -213.5t294 -78.5zM586 0h583v1169q159 0 294 78.5t213.5 213.5t78.5 294v586q-159 0 -294 -78.5t-213.5 -213.5t-78.5 -294t-78 -294t-212.5 -213.5t-292.5 -78.5v-1169z" />
    <glyph glyph-name="Z" unicode="Z" 
d="M586 0h1169q0 159 -78.5 294t-213.5 213.5t-294 78.5h-583q119 0 226.5 46t186 123.5t124.5 186t46 227.5q159 0 294 78.5t213.5 213.5t78.5 294t-78.5 294t-213.5 213.5t-294 78.5h-1169q0 -159 78.5 -294t213.5 -213.5t294 -78.5h583q0 -159 -78 -294t-212.5 -213.5
t-292.5 -78.5q-160 0 -294.5 -77.5t-213 -212t-78.5 -293.5t78.5 -294t213.5 -213.5t294 -78.5z" />
    <glyph glyph-name="a" unicode="a" 
d="M586 0h1169q-159 0 -294 78.5t-213.5 213.5t-78.5 294h-583v583h583v-583h586v583q0 159 -78.5 294t-213.5 213.5t-294 78.5h-583q-159 0 -294 -78.5t-213.5 -213.5t-78.5 -294v-583q0 -159 78.5 -294t213.5 -213.5t294 -78.5z" />
    <glyph glyph-name="b" unicode="b" 
d="M586 0h583q159 0 294 78.5t213.5 213.5t78.5 294v583q0 159 -78.5 294t-213.5 213.5t-294 78.5q-158 0 -292.5 -78.5t-212.5 -213.5t-78 -294h583v-583h-583v1169q-159 0 -294 78.5t-213.5 213.5t-78.5 294v-1755q0 -159 78.5 -294t213.5 -213.5t294 -78.5z" />
    <glyph glyph-name="c" unicode="c" 
d="M586 0h583q159 0 294 78.5t213.5 213.5t78.5 294h-1169v583h1169q0 159 -78.5 294t-213.5 213.5t-294 78.5h-583q0 -159 -78.5 -294t-213.5 -213.5t-294 -78.5v-583q0 -159 78.5 -294t213.5 -213.5t294 -78.5z" />
    <glyph glyph-name="d" unicode="d" 
d="M586 0h1169q-159 0 -294 78.5t-213.5 213.5t-78.5 294h-583v583h583q0 160 -77.5 294.5t-212 213t-293.5 78.5t-294 -78.5t-213.5 -213.5t-78.5 -294v-583q0 -159 78.5 -294t213.5 -213.5t294 -78.5zM1169 586h586v1755q0 -159 -78.5 -294t-213.5 -213.5t-294 -78.5
v-1169z" />
    <glyph glyph-name="e" unicode="e" 
d="M586 0h583q-158 0 -292.5 78.5t-212.5 213.5t-78 294v583h583q0 -158 -78 -292.5t-212.5 -212.5t-292.5 -78h583q160 0 294.5 77.5t213 212t78.5 293.5t-78.5 294t-213.5 213.5t-294 78.5h-583q-159 0 -294 -78.5t-213.5 -213.5t-78.5 -294v-583q0 -159 78.5 -294
t213.5 -213.5t294 -78.5z" />
    <glyph glyph-name="f" unicode="f" horiz-adv-x="1519" 
d="M0 0q159 0 294 78.5t213.5 213.5t78.5 294q0 158 78 292.5t212.5 212.5t292.5 78h-583v586h583v586h-583q-159 0 -294 -78.5t-213.5 -213.5t-78.5 -294v-1755z" />
    <glyph glyph-name="g" unicode="g" 
d="M586 -1169h583q160 0 294.5 77.5t213 212t78.5 293.5v586h-586v-586h-1169q0 -158 78.5 -292.5t213.5 -212.5t294 -78zM1169 586h-583v583h583v-583zM586 0h583q0 159 78.5 294t213.5 213.5t294 78.5v583q0 159 -78.5 294t-213.5 213.5t-294 78.5h-583q-159 0 -294 -78.5
t-213.5 -213.5t-78.5 -294v-583q0 -159 78.5 -294t213.5 -213.5t294 -78.5z" />
    <glyph glyph-name="h" unicode="h" 
d="M586 0v1169h583v-1169q159 0 294 78.5t213.5 213.5t78.5 294v583q0 159 -78.5 294t-213.5 213.5t-294 78.5h-583v586q-159 0 -294 78.5t-213.5 213.5t-78.5 294v-2341q0 -159 78.5 -294t213.5 -213.5t294 -78.5z" />
    <glyph glyph-name="i" unicode="i" horiz-adv-x="935" 
d="M0 0q159 0 294 78.5t213.5 213.5t78.5 294v1169q0 -159 -78.5 -294t-213.5 -213.5t-294 -78.5v-1169zM0 1755h586v586q-159 0 -294 -78.5t-213.5 -213.5t-78.5 -294z" />
    <glyph glyph-name="j" unicode="j" horiz-adv-x="1519" 
d="M0 -586h586q158 0 292.5 78.5t212.5 213.5t78 294v1755q0 -159 -78 -294t-212.5 -213.5t-292.5 -78.5v-1169h-586v-586zM586 1755h583v586q-158 0 -292.5 -78.5t-212.5 -213.5t-78 -294z" />
    <glyph glyph-name="k" unicode="k" 
d="M1169 0h586q0 159 -78.5 294t-213.5 213.5t-294 78.5v-586zM0 0h586v1169q0 -119 46 -226.5t123.5 -186t186 -124.5t227.5 -46v583q-158 0 -292.5 78.5t-212.5 213.5t-78 294t-78.5 294t-213.5 213.5t-294 78.5v-2341zM1169 1169q159 0 294 78.5t213.5 213.5t78.5 294
v586q-159 0 -294 -78.5t-213.5 -213.5t-78.5 -294v-586z" />
    <glyph glyph-name="l" unicode="l" horiz-adv-x="1519" 
d="M586 0h583q0 160 -77.5 294.5t-212 213t-293.5 78.5v-586zM0 0q159 0 294 78.5t213.5 213.5t78.5 294v1169q-159 0 -294 78.5t-213.5 213.5t-78.5 294v-2341z" />
    <glyph glyph-name="m" unicode="m" horiz-adv-x="3274" 
d="M0 0h586v1755h-586v-1755zM1169 0h586v1169q-159 0 -294 78.5t-213.5 213.5t-78.5 294q-158 0 -292.5 -78.5t-212.5 -213.5t-78 -294h583v-1169zM2341 0h586v1169q-159 0 -294 78.5t-213.5 213.5t-78.5 294q-159 0 -294 -78.5t-213.5 -213.5t-78.5 -294h586v-1169z" />
    <glyph glyph-name="n" unicode="n" 
d="M0 0h586v1755h-586v-1755zM1169 0h586v1169q-159 0 -294 78.5t-213.5 213.5t-78.5 294q-158 0 -292.5 -78.5t-212.5 -213.5t-78 -294h583v-1169z" />
    <glyph glyph-name="o" unicode="o" 
d="M1169 0h586v586q0 -159 -78.5 -294t-213.5 -213.5t-294 -78.5zM586 0h583v586h-583v583h-586v-583q0 -159 78.5 -294t213.5 -213.5t294 -78.5zM0 1169q0 159 78.5 294t213.5 213.5t294 78.5h-586v-586zM1169 586h586v583q0 159 -78.5 294t-213.5 213.5t-294 78.5h-583
v-586h583v-583z" />
    <glyph glyph-name="p" unicode="p" 
d="M0 -1169q0 158 78.5 292.5t213.5 212.5t294 78v1755h583v-583q0 -159 -78 -294t-212.5 -213.5t-292.5 -78.5h583q159 0 294 78.5t213.5 213.5t78.5 294v583q0 159 -78.5 294t-213.5 213.5t-294 78.5h-583q-159 0 -294 -78.5t-213.5 -213.5t-78.5 -294v-2338z" />
    <glyph glyph-name="q" unicode="q" 
d="M1755 -1169v2338q0 159 -78.5 294t-213.5 213.5t-294 78.5h-583q-159 0 -294 -78.5t-213.5 -213.5t-78.5 -294v-583q0 -159 78.5 -294t213.5 -213.5t294 -78.5h583q-158 0 -292.5 78.5t-212.5 213.5t-78 294v583h583v-1755q159 0 294 -78t213.5 -212.5t78.5 -292.5z" />
    <glyph glyph-name="r" unicode="r" horiz-adv-x="1519" 
d="M0 -586q0 159 78.5 294t213.5 213.5t294 78.5v1755h-586v-2341zM586 1169h583v586q-158 0 -292.5 -78.5t-212.5 -213.5t-78 -294z" />
    <glyph glyph-name="s" unicode="s" 
d="M0 0h586q-159 0 -294 78.5t-213.5 213.5t-78.5 294v-586zM586 0h583q159 0 294 78.5t213.5 213.5t78.5 294q0 158 -78.5 292.5t-213.5 212.5t-294 78h-583q0 159 78 294t212.5 213.5t292.5 78.5h-583q-159 0 -294 -78.5t-213.5 -213.5t-78.5 -294q0 -158 78.5 -292.5
t213.5 -212.5t294 -78h583q0 -159 -78 -294t-212.5 -213.5t-292.5 -78.5zM1755 1169v586h-586q159 0 294 -78.5t213.5 -213.5t78.5 -294z" />
    <glyph glyph-name="t" unicode="t" 
d="M1169 0h586q-159 0 -294 78.5t-213.5 213.5t-78.5 294v583h586q-159 0 -294 78.5t-213.5 213.5t-78.5 294v586q-158 0 -292.5 -78.5t-212.5 -213.5t-78 -294t-78.5 -294t-213.5 -213.5t-294 -78.5h586v-583q0 -160 77.5 -294.5t212 -213t293.5 -78.5z" />
    <glyph glyph-name="u" unicode="u" 
d="M586 0h583q159 0 294 78.5t213.5 213.5t78.5 294v1169q-159 0 -294 -78.5t-213.5 -213.5t-78.5 -294v-583h-583v583q-159 0 -294 78.5t-213.5 213.5t-78.5 294v-1169q0 -159 78.5 -294t213.5 -213.5t294 -78.5z" />
    <glyph glyph-name="v" unicode="v" 
d="M586 0q158 0 292.5 78.5t212.5 213.5t78 294h-583v1169h-586v-1169q159 0 294 -78.5t213.5 -213.5t78.5 -294zM1169 586h586v1169h-586v-1169z" />
    <glyph glyph-name="w" unicode="w" horiz-adv-x="3274" 
d="M1169 0v586h-583q0 -160 77.5 -294.5t212 -213t293.5 -78.5zM0 586h586v1169h-586v-1169zM1169 586h586v1169h-586v-1169zM2341 0h586v1755h-586v-1169h-586q0 -159 78.5 -294t213.5 -213.5t294 -78.5z" />
    <glyph glyph-name="x" unicode="x" 
d="M0 0q159 0 294 78.5t213.5 213.5t78.5 294h-586v-586zM1755 0v586h-586q0 -159 78.5 -294t213.5 -213.5t294 -78.5zM586 586h583q0 158 78.5 292.5t213.5 212.5t294 78v586q-159 0 -294 -78.5t-213.5 -213.5t-78.5 -294h-583q0 159 -78.5 294t-213.5 213.5t-294 78.5
v-586q159 0 294 -78t213.5 -212.5t78.5 -292.5z" />
    <glyph glyph-name="y" unicode="y" 
d="M586 -1169h583q160 0 294.5 77.5t213 212t78.5 293.5v2341q-159 0 -294 -78.5t-213.5 -213.5t-78.5 -294v-583h-583v583q-159 0 -294 78.5t-213.5 213.5t-78.5 294v-1169q0 -159 78.5 -294t213.5 -213.5t294 -78.5h583v-586q-119 0 -226.5 -46t-186 -123.5t-124.5 -186
t-46 -227.5z" />
    <glyph glyph-name="z" unicode="z" 
d="M586 0h583q-158 0 -292.5 78.5t-212.5 213.5t-78 294h-586q0 -159 78.5 -294t213.5 -213.5t294 -78.5zM1169 0h586v586q0 -159 -78.5 -294t-213.5 -213.5t-294 -78.5zM586 586h583v583q-119 0 -226.5 -46t-186 -123.5t-124.5 -186t-46 -227.5zM0 1169q0 159 78.5 294
t213.5 213.5t294 78.5h-586v-586zM1169 1169h586q0 159 -78.5 294t-213.5 213.5t-294 78.5h-583q158 0 292.5 -78.5t212.5 -213.5t78 -294z" />
    <glyph glyph-name="Agrave" unicode="&#xc0;" 
d="M0 0h586v586q0 158 78 292.5t212.5 212.5t292.5 78h-583v586h583v-1755h586v1755q0 159 -78.5 294t-213.5 213.5t-294 78.5h-583q-159 0 -294 -78.5t-213.5 -213.5t-78.5 -294v-1755zM1169 2927v290l-583 293z" />
    <glyph glyph-name="Aacute" unicode="&#xc1;" 
d="M0 0h586v586q0 158 78 292.5t212.5 212.5t292.5 78h-583v586h583v-1755h586v1755q0 159 -78.5 294t-213.5 213.5t-294 78.5h-583q-159 0 -294 -78.5t-213.5 -213.5t-78.5 -294v-1755zM586 2927l583 583l-583 -293v-290z" />
    <glyph glyph-name="Egrave" unicode="&#xc8;" 
d="M586 0h583q159 0 294 78.5t213.5 213.5t78.5 294h-1169q0 158 78 292.5t212.5 212.5t292.5 78h-583v586h1169q0 159 -78.5 294t-213.5 213.5t-294 78.5h-583q-159 0 -294 -78.5t-213.5 -213.5t-78.5 -294v-1169q0 -159 78.5 -294t213.5 -213.5t294 -78.5zM1169 2927v290
l-583 293z" />
    <glyph glyph-name="Eacute" unicode="&#xc9;" 
d="M586 0h583q159 0 294 78.5t213.5 213.5t78.5 294h-1169q0 158 78 292.5t212.5 212.5t292.5 78h-583v586h1169q0 159 -78.5 294t-213.5 213.5t-294 78.5h-583q-159 0 -294 -78.5t-213.5 -213.5t-78.5 -294v-1169q0 -159 78.5 -294t213.5 -213.5t294 -78.5zM586 2927
l583 583l-583 -293v-290z" />
    <glyph glyph-name="Igrave" unicode="&#xcc;" horiz-adv-x="935" 
d="M0 0q159 0 294 78.5t213.5 213.5t78.5 294v1169q0 -159 -78.5 -294t-213.5 -213.5t-294 -78.5v-1169zM0 1755h586v586q-159 0 -294 -78.5t-213.5 -213.5t-78.5 -294zM586 2927v290l-586 293z" />
    <glyph glyph-name="Iacute" unicode="&#xcd;" horiz-adv-x="935" 
d="M0 0q159 0 294 78.5t213.5 213.5t78.5 294v1169q0 -159 -78.5 -294t-213.5 -213.5t-294 -78.5v-1169zM0 1755h586v586q-159 0 -294 -78.5t-213.5 -213.5t-78.5 -294zM0 2927l586 583l-586 -293v-290z" />
    <glyph glyph-name="Ograve" unicode="&#xd2;" 
d="M1169 0h586v586q0 -159 -78.5 -294t-213.5 -213.5t-294 -78.5zM586 0h583v586h-583v1169h-586v-1169q0 -159 78.5 -294t213.5 -213.5t294 -78.5zM0 1755q0 159 78.5 294t213.5 213.5t294 78.5h-586v-586zM1169 586h586v1169q0 159 -78.5 294t-213.5 213.5t-294 78.5h-583
v-586h583v-1169zM1169 2927v290l-583 293z" />
    <glyph glyph-name="Oacute" unicode="&#xd3;" 
d="M1169 0h586v586q0 -159 -78.5 -294t-213.5 -213.5t-294 -78.5zM586 0h583v586h-583v1169h-586v-1169q0 -159 78.5 -294t213.5 -213.5t294 -78.5zM0 1755q0 159 78.5 294t213.5 213.5t294 78.5h-586v-586zM1169 586h586v1169q0 159 -78.5 294t-213.5 213.5t-294 78.5h-583
v-586h583v-1169zM586 2927l583 583l-583 -293v-290z" />
    <glyph glyph-name="Ugrave" unicode="&#xd9;" 
d="M586 0h583q159 0 294 78.5t213.5 213.5t78.5 294v1755q-159 0 -294 -78.5t-213.5 -213.5t-78.5 -294v-1169h-583v1169q-159 0 -294 78.5t-213.5 213.5t-78.5 294v-1755q0 -159 78.5 -294t213.5 -213.5t294 -78.5zM879 2341h290l-583 586z" />
    <glyph glyph-name="Uacute" unicode="&#xda;" 
d="M586 0h583q159 0 294 78.5t213.5 213.5t78.5 294v1755q-159 0 -294 -78.5t-213.5 -213.5t-78.5 -294v-1169h-583v1169q-159 0 -294 78.5t-213.5 213.5t-78.5 294v-1755q0 -159 78.5 -294t213.5 -213.5t294 -78.5zM586 2341l583 586l-583 -293v-293z" />
    <glyph glyph-name="Yacute" unicode="&#xdd;" horiz-adv-x="350" 
 />
    <glyph glyph-name="agrave" unicode="&#xe0;" 
d="M586 0h1169q-159 0 -294 78.5t-213.5 213.5t-78.5 294h-583v583h583v-583h586v583q0 159 -78.5 294t-213.5 213.5t-294 78.5h-583q-159 0 -294 -78.5t-213.5 -213.5t-78.5 -294v-583q0 -159 78.5 -294t213.5 -213.5t294 -78.5zM1169 2048v293h-583z" />
    <glyph glyph-name="aacute" unicode="&#xe1;" 
d="M586 0h1169q-159 0 -294 78.5t-213.5 213.5t-78.5 294h-583v583h583v-583h586v583q0 159 -78.5 294t-213.5 213.5t-294 78.5h-583q-159 0 -294 -78.5t-213.5 -213.5t-78.5 -294v-583q0 -159 78.5 -294t213.5 -213.5t294 -78.5zM586 2048l583 293h-583v-293z" />
    <glyph glyph-name="egrave" unicode="&#xe8;" 
d="M586 0h583q-158 0 -292.5 78.5t-212.5 213.5t-78 294v583h583q0 -158 -78 -292.5t-212.5 -212.5t-292.5 -78h583q160 0 294.5 77.5t213 212t78.5 293.5t-78.5 294t-213.5 213.5t-294 78.5h-583q-159 0 -294 -78.5t-213.5 -213.5t-78.5 -294v-583q0 -159 78.5 -294
t213.5 -213.5t294 -78.5zM1169 2048v293h-583z" />
    <glyph glyph-name="eacute" unicode="&#xe9;" 
d="M586 0h583q-158 0 -292.5 78.5t-212.5 213.5t-78 294v583h583q0 -158 -78 -292.5t-212.5 -212.5t-292.5 -78h583q160 0 294.5 77.5t213 212t78.5 293.5t-78.5 294t-213.5 213.5t-294 78.5h-583q-159 0 -294 -78.5t-213.5 -213.5t-78.5 -294v-583q0 -159 78.5 -294
t213.5 -213.5t294 -78.5zM586 2048l583 293h-583v-293z" />
    <glyph glyph-name="igrave" unicode="&#xec;" horiz-adv-x="935" 
d="M0 0q159 0 294 78.5t213.5 213.5t78.5 294v1169q0 -159 -78.5 -294t-213.5 -213.5t-294 -78.5v-1169zM0 1755h586v586q-159 0 -294 -78.5t-213.5 -213.5t-78.5 -294zM586 2634v293h-586z" />
    <glyph glyph-name="iacute" unicode="&#xed;" horiz-adv-x="935" 
d="M0 0q159 0 294 78.5t213.5 213.5t78.5 294v1169q0 -159 -78.5 -294t-213.5 -213.5t-294 -78.5v-1169zM0 1755h586v586q-159 0 -294 -78.5t-213.5 -213.5t-78.5 -294zM0 2634l586 293h-586v-293z" />
    <glyph glyph-name="ograve" unicode="&#xf2;" 
d="M1169 0h586v586q0 -159 -78.5 -294t-213.5 -213.5t-294 -78.5zM586 0h583v586h-583v583h-586v-583q0 -159 78.5 -294t213.5 -213.5t294 -78.5zM0 1169q0 159 78.5 294t213.5 213.5t294 78.5h-586v-586zM1169 586h586v583q0 159 -78.5 294t-213.5 213.5t-294 78.5h-583
v-586h583v-583zM1169 2048v293h-583z" />
    <glyph glyph-name="oacute" unicode="&#xf3;" 
d="M1169 0h586v586q0 -159 -78.5 -294t-213.5 -213.5t-294 -78.5zM586 0h583v586h-583v583h-586v-583q0 -159 78.5 -294t213.5 -213.5t294 -78.5zM0 1169q0 159 78.5 294t213.5 213.5t294 78.5h-586v-586zM1169 586h586v583q0 159 -78.5 294t-213.5 213.5t-294 78.5h-583
v-586h583v-583zM586 2048l583 293h-583v-293z" />
    <glyph glyph-name="ugrave" unicode="&#xf9;" 
d="M586 0h583q159 0 294 78.5t213.5 213.5t78.5 294v1169q-159 0 -294 -78.5t-213.5 -213.5t-78.5 -294v-583h-583v583q-159 0 -294 78.5t-213.5 213.5t-78.5 294v-1169q0 -159 78.5 -294t213.5 -213.5t294 -78.5zM1169 2048v293h-583z" />
    <glyph glyph-name="uacute" unicode="&#xfa;" 
d="M586 0h583q159 0 294 78.5t213.5 213.5t78.5 294v1169q-159 0 -294 -78.5t-213.5 -213.5t-78.5 -294v-583h-583v583q-159 0 -294 78.5t-213.5 213.5t-78.5 294v-1169q0 -159 78.5 -294t213.5 -213.5t294 -78.5zM586 2048l583 293h-583v-293z" />
    <glyph glyph-name="yacute" unicode="&#xfd;" horiz-adv-x="350" 
 />
    <glyph glyph-name="quoteleft" unicode="&#x2018;" horiz-adv-x="1519" 
d="M0 1755q159 0 294 78.5t213.5 213.5t78.5 294t78 294t212.5 213.5t292.5 78.5h-583q-159 0 -294 -78.5t-213.5 -213.5t-78.5 -294v-586z" />
    <glyph glyph-name="quoteright" unicode="&#x2019;" horiz-adv-x="1519" 
d="M0 1755h586q158 0 292.5 78.5t212.5 213.5t78 294v586q-158 0 -292.5 -78.5t-212.5 -213.5t-78 -294t-78.5 -294t-213.5 -213.5t-294 -78.5z" />
    <glyph glyph-name="quotedblleft" unicode="&#x201c;" horiz-adv-x="350" 
 />
    <glyph glyph-name="quotedblright" unicode="&#x201d;" horiz-adv-x="350" 
 />
  </font>
</defs>
</svg>
