<?xml version="1.0" encoding="UTF-8"?>
<svg xmlns="http://www.w3.org/2000/svg" viewBox="0 0 814 3267.43">
  <defs>
    <style>
      .cls-1, .cls-2, .cls-3 {
        mix-blend-mode: multiply;
      }

      .cls-1, .cls-4 {
        fill: #ffb7bb;
      }

      .cls-2 {
        fill: #70cfed;
      }

      .cls-5 {
        fill: #606060;
      }

      .cls-6 {
        isolation: isolate;
      }
    </style>
  </defs>
  <g class="cls-6">
    <g id="fons">
      <g class="cls-3">
        <path class="cls-4" d="M228.36,549.7c-37.14,0-68.76,12.88-94.85,38.64-26.4,25.46-39.6,56.31-39.6,92.55v131.19c0,36.24-13.19,67.24-39.6,93-26.4,25.76-58.17,38.64-95.31,38.64v-262.83c0-36.24,13.2-67.09,39.6-92.55,26.4-25.76,58.17-38.64,95.31-38.64h134.45Z"/>
      </g>
      <path class="cls-1" d="M2227.46,205.16v298.77c0,165.64-134.19,299.82-299.82,299.82-165.64,0-299.82-134.18-299.82-299.82,0-164.35-133.83-298.42-298.12-298.77-164.29.36-298.11,134.41-298.11,298.77,0,165.64-134.18,299.82-299.82,299.82h-22.27c-24.31-1.76-47.8-6.44-70.15-13.67-120.38-38.95-207.4-151.93-207.4-285.32,0-164.35-133.82-298.4-298.11-298.77-164.29.35-298.12,134.41-298.12,298.77,0,165.64-134.18,299.82-299.82,299.82-165.62,0-299.82-134.18-299.82-299.82V205.99c0-165.62,134.19-299.8,299.82-299.8V504.75c165.64,0,299.82-134.18,299.82-298.77,0-165.18,132.43-299.09,297.46-299.79.22-.01.44-.01.66-.01s.43,0,.65.01c165.03.7,297.46,134.61,297.46,299.79,0,157.06,122.19,286.43,277.31,297.94,7.42.54,22.51,0,22.51,0,165.64,0,299.82-134.18,299.82-298.77,0-165.18,132.43-299.09,297.46-299.79.22-.01.43-.01.65-.01s.44,0,.66.01c165.03.7,297.46,134.61,297.46,299.79,0,164.59,134.18,298.77,299.82,298.77V-94.65c165.62,0,299.82,134.18,299.82,299.8Z"/>
      <g>
        <path class="cls-2" d="M-92.34,2497.58c142.36,0,257.68-115.32,257.68-256.77s113.82-257.05,255.65-257.65c.19-.01.37-.01.56-.01s.38,0,.57.01c141.83.6,255.65,115.69,255.65,257.65s115.32,256.77,257.68,256.77v-514.44c142.35,0,257.68,115.32,257.68,257.66v256.77c0,142.36-115.33,257.68-257.68,257.68s-257.68-115.32-257.68-257.68-115.02-256.47-256.22-256.77c-141.2.31-256.21,115.52-256.21,256.77s-115.32,257.68-257.68,257.68"/>
        <path class="cls-1" d="M-84.99,2624.17c142.36,0,257.68-115.32,257.68-256.77s113.82-257.05,255.65-257.65c.19-.01.37-.01.56-.01s.38,0,.57.01c141.83.6,255.65,115.69,255.65,257.65s115.32,256.77,257.68,256.77v-514.44c142.35,0,257.68,115.32,257.68,257.66v256.77c0,142.36-115.33,257.68-257.68,257.68s-257.68-115.32-257.68-257.68-115.02-256.47-256.22-256.77c-141.2.31-256.21,115.52-256.21,256.77s-115.32,257.68-257.68,257.68"/>
      </g>
      <g class="cls-3">
        <path class="cls-4" d="M833.16,3175.85c0,78.74-30.51,146.1-91.52,202.08-60.31,55.97-133.39,83.96-219.23,83.96H-100.14c0-78.76,30.51-146.12,91.52-202.08,61.03-55.98,134.45-83.96,220.29-83.96h310.75c85.83,0,158.91-27.99,219.23-83.96,61.01-55.33,91.52-122.37,91.52-201.11v285.06Z"/>
      </g>
      <g>
        <g class="cls-3">
          <path class="cls-2" d="M1193.81,1857.77h-322.26c-88.73,0-164.62-31.53-227.67-94.59-54.54-54.53-85.22-119.18-92.03-193.92-3.13-34.37-12.02-67.96-25.72-99.63-15.58-36-38.65-79.21-69.23-110.14-63.05-63.06-138.95-94.59-227.67-94.59s-165.35-31.16-227.67-93.49c-63.06-63.05-94.59-138.95-94.59-227.67H229.22c88.73,0,164.62,31.53,227.67,94.59,53.43,53.42,83.96,116.55,91.59,189.38,4.07,38.85,13.77,76.94,29.87,112.54,15.44,34.16,37.29,73.21,65.53,101.78,63.05,63.06,138.95,94.59,227.67,94.59s165.35,31.16,227.67,93.49c63.06,63.05,94.59,138.94,94.59,227.67Z"/>
        </g>
        <path class="cls-1" d="M-53.49,1015.63c-54.96,115.42-5.98,253.45,108.71,308.06,115.11,54.81,164.48,191.52,110.21,306.75-.06.16-.13.3-.21.46s-.15.31-.23.46c-55.25,114.77-192.5,162.62-307.61,107.81-114.69-54.61-252.71-5.63-307.67,109.79l417.11,198.61c-54.96,115.41-192.98,164.4-308.4,109.45l-208.19-99.13c-115.42-54.96-164.4-192.99-109.44-308.41,54.96-115.42,192.98-164.4,308.41-109.44,114.53,54.53,252.35,5.76,307.11-108.61,54.26-114.6,5.25-252.33-109.28-306.87-115.42-54.96-164.4-192.98-109.44-308.41"/>
        <path class="cls-2" d="M-159.52,1015.63c-54.96,115.42-5.98,253.45,108.71,308.06,115.11,54.81,164.48,191.52,110.21,306.75-.06.16-.13.3-.21.46s-.15.31-.23.46c-55.25,114.77-192.5,162.62-307.61,107.81-114.69-54.61-252.71-5.63-307.67,109.79l417.11,198.61c-54.96,115.41-192.98,164.4-308.4,109.45l-208.19-99.13c-115.42-54.96-164.4-192.99-109.44-308.41,54.96-115.42,192.98-164.4,308.41-109.44,114.53,54.53,252.35,5.76,307.11-108.61,54.26-114.6,5.25-252.33-109.28-306.87-115.42-54.96-164.4-192.98-109.44-308.41"/>
      </g>
    </g>
    <g id="Capa_2" data-name="Capa 2">
      <rect class="cls-5" x="-762.97" y="-261.05" width="1989.24" height="261.05"/>
      <rect class="cls-5" x="813" y="-429.45" width="223.58" height="4653"/>
    </g>
  </g>
</svg>